<svg width="256" height="256" viewBox="0 0 256 256" fill="none" xmlns="http://www.w3.org/2000/svg">
<path d="M128 256C198.692 256 256 198.692 256 128C256 57.3075 198.692 0 128 0C57.3075 0 0 57.3075 0 128C0 198.692 57.3075 256 128 256Z" fill="#0F9D58"/>
<path d="M34.9907 178C33.0027 178 31.0148 177.006 29.9015 175.177C28.1521 172.354 29.0268 168.657 31.8497 166.947L76.6184 139.155C78.2883 138.122 80.3955 137.963 82.2244 138.758L124.488 157.683L207.903 93.9891C210.527 92.0012 214.304 92.4783 216.292 95.1024C218.28 97.7265 217.803 101.504 215.179 103.492L128.902 169.333C127.152 170.684 124.806 170.923 122.818 170.048L80.1967 151.004L38.1316 177.086C37.1376 177.682 36.0642 178 34.9907 178Z" fill="#51FCB9"/>
<path d="M175.698 91.4446L227.782 79L212.515 130.329L175.698 91.4446Z" fill="#51FCB9"/>
</svg>
