<svg width="199" height="99" viewBox="0 0 199 99" xmlns="http://www.w3.org/2000/svg">
<path d="M5.99066 99C4.0027 99 2.01475 98.006 0.901499 96.1771C-0.8479 93.3542 0.0267995 89.6566 2.84969 87.947L47.6184 60.1554C49.2883 59.1217 51.3955 58.9626 53.2244 59.7578L95.4883 78.6831L178.903 14.9891C181.527 13.0012 185.304 13.4783 187.292 16.1024C189.28 18.7265 188.803 22.5036 186.179 24.4915L99.9015 90.3325C98.1521 91.6843 95.8063 91.9229 93.8184 91.0482L51.1967 72.0036L9.13162 98.0855C8.13765 98.6819 7.06415 99 5.99066 99Z"/>
<path d="M146.698 12.4446L198.782 0L183.515 51.3289L146.698 12.4446Z"/>
</svg>
